<svg width="1024" height="1024" viewBox="0 0 1024 1024" fill="none" xmlns="http://www.w3.org/2000/svg">
<path d="M532.907 214.957C484.282 220.431 437.483 243.523 403.176 279.056C378.864 304.238 363.392 331.012 348.497 373.313C340.809 395.111 336.966 409.941 281.614 630.406L260.038 722.536L258.839 735.413C259.223 746.56 259.608 748.75 262.683 756.812C269.506 775.325 275.944 785.577 286.899 795.929C301.986 810.261 322.839 814.74 341.866 807.773C355.128 802.995 364.641 794.236 379.152 773.235C388.954 759.101 394.624 752.831 400.101 750.343C405.002 747.954 413.843 747.755 418.552 749.745C423.837 752.035 431.14 759.898 439.981 772.737C449.687 786.772 461.507 799.512 469.099 803.891C480.15 810.361 495.718 812.65 508.306 809.564C523.393 805.882 535.309 795.829 550.108 774.529C561.448 758.106 565.196 753.926 571.057 750.94C576.439 748.153 583.07 747.556 589.316 749.347C594.601 750.94 602.577 759.101 611.899 772.538C631.118 800.208 643.899 809.465 664.56 810.759C686.662 812.053 705.017 800.806 720.488 776.52C731.347 759.4 729.81 768.657 750.47 599.451C766.519 468.765 768.825 448.261 768.825 436.218C768.729 334.993 703.095 246.708 608.824 221.327C602.001 219.436 591.814 217.246 586.241 216.351C573.844 214.36 544.631 213.663 532.907 214.957Z" fill="#1DE9B7"/>
</svg>
